PathFileType	4	(X/Y/Z)	C:/Users/beibeiliu/ov580/test_trc/User3\sequence.11_training_dense_left.trc
DataRate	CameraRate	NumFrames	NumMarkers	Units	OrigDataRate	OrigDataStartFrame	OrigNumFrames
120	120	11	19	mm	120	172	196
Frame#	Time	ThumbCMC			ThumbMCP			ThumbIP			ThumbTip			IndexMCP			IndexPIP			IndexTip			MiddleMCP			MiddlePIP			MiddleTip			RingMCP			RingPIP			RingTip			PinkyMCP			PinkyPIP			PinkyTip			BackHand1			BackHand2			BackHand3	
		X0	Y0	Z0	X1	Y1	Z1	X2	Y2	Z2	X3	Y3	Z3	X4	Y4	Z4	X5	Y5	Z5	X6	Y6	Z6	X7	Y7	Z7	X8	Y8	Z8	X9	Y9	Z9	X10	Y10	Z10	X11	Y11	Z11	X12	Y12	Z12	X13	Y13	Z13	X14	Y14	Z14	X15	Y15	Z15	X16	Y16	Z16	X17	Y17	Z17	X18	Y18	Z18	
171	1.425	-172.309	-11.6569	18.3291	-154.291	-4.444	0.814175	-136.5	5.42136	-20.512	-123.882	16.1459	-29.2606	-143.752	-40.03	-53.8705	-131.041	-43.6519	-70.6657	-118.358	-44.4722	-92.9453	-160.524	-64.4659	-59.697	-146.84	-67.8455	-77.09	-133.725	-73.9971	-106.441	-171.376	-82.2594	-48.3164	-164.538	-91.5441	-65.1385	-155.568	-102.108	-91.4114	-184.775	-99.8812	-26.5649	-179.073	-113.525	-43.552	-175.25	-126.217	-58.2842	-201.415	-65.9717	-13.2959	-220.006	-52.7975	13.1773	-191.932	-27.672	-1.33281	
172	1.43333	-178.406	-6.52995	15.5549	-162.434	6.61823	-2.21728	-147.127	14.4431	-25.6356	-135.633	30.0218	-34.1637	-148.185	-33.2654	-50.8202	-133.156	-35.7386	-71.2786	-120.032	-33.9517	-90.6576	-157.768	-61.6617	-55.8182	-141.793	-61.9285	-77.7761	-127.32	-68.7047	-106.878	-162.28	-79.211	-48.5238	-152.703	-88.3753	-65.7909	-143.389	-99.9937	-85.0686	-173.844	-100.204	-22.1397	-164.231	-113.209	-38.9508	-159.304	-129.071	-55.6442	-195.879	-62.0877	-12.0824	-216.073	-57.6901	11.4283	-197.77	-31.1701	-2.24279	
173	1.44167	-186.473	-5.42097	10.357	-171.622	6.51224	-10.3492	-160.253	23.4305	-33.6944	-152.552	34.5668	-43.642	-150.914	-30.0537	-53.0354	-133.498	-27.926	-76.6573	-122.42	-31.6114	-93.5085	-153.205	-56.2941	-55.7709	-136.884	-56.5748	-79.3769	-121.259	-58.798	-106.111	-155.184	-73.6796	-41.9679	-144.022	-85.135	-59.7684	-129.853	-88.8516	-82.8845	-160.731	-93.8526	-20.3549	-148.099	-106.764	-33.0122	-140.03	-123.912	-46.243	-194.26	-61.1554	-10.0871	-209.59	-58.9936	10.9415	-198.731	-27.7107	-8.30774	
174	1.45	-195.623	-3.03634	4.96855	-184.804	8.65035	-16.8628	-177.614	27.4778	-40.8369	-171.349	37.1212	-53.4573	-156.97	-21.5122	-55.6752	-138.274	-23.0099	-77.9543	-124.833	-21.3945	-99.1524	-151.962	-50.9509	-57.464	-134.4	-51.2686	-80.5488	-120.53	-52.5691	-102.465	-149.137	-72.4146	-41.9881	-135.047	-74.2443	-61.0807	-120.139	-83.1606	-79.5648	-151.284	-87.9833	-16.8609	-137.524	-96.6488	-28.7524	-123.379	-112.562	-39.6626	-189.511	-65.8587	-11.3184	-209.049	-62.592	11.2882	-203.654	-30.5025	-9.32515	
175	1.45833	-205.786	-2.08248	4.16704	-197.755	13.7759	-21.229	-189.839	27.0245	-43.6416	-190.448	44.0156	-56.1827	-160.249	-22.0096	-59.2285	-148.456	-14.1246	-79.0717	-133.748	-12.1816	-101.481	-153.674	-47.4531	-60.1912	-139.298	-46.5071	-78.968	-120.096	-44.7031	-107.378	-148.24	-64.9969	-42.4307	-133.306	-67.4391	-61.6444	-119.016	-74.1226	-77.8217	-146.512	-82.4672	-16.6649	-131.382	-89.0367	-26.1774	-116.138	-101.73	-38.7193	-190.725	-61.0236	-7.57326	-208.155	-60.1622	10.7701	-207.965	-31.4908	-10.0796	
176	1.46667	-211.221	-2.2896	-3.00087	-207.258	12.9433	-24.9172	-203.258	27.1269	-47.3945	-204.739	41.1041	-61.1281	-166.825	-20.96	-61.9681	-151.13	-15.9141	-85.2563	-141.57	-11.6672	-103.861	-156.554	-45.2503	-61.564	-143.426	-41.275	-80.9871	-125.723	-40.3897	-110.827	-148.596	-62.0791	-42.0828	-134.329	-67.2809	-58.8656	-116.867	-70.4548	-81.7294	-145.445	-72.916	-18.867	-125.549	-84.2904	-26.008	-110.733	-93.7266	-36.3848	-189.791	-62.4943	-8.14227	-207.874	-62.4282	11.8778	-210.707	-33.4533	-14.6618	
177	1.475	-221.456	-3.67087	-5.54038	-216.699	9.5982	-28.6199	-215.483	21.5568	-50.2654	-217.288	34.331	-69.542	-174.822	-20.9274	-69.0252	-162.007	-17.4046	-88.473	-150.21	-11.6347	-111.889	-162.303	-45.8424	-60.642	-146.221	-44.6175	-86.3999	-131.407	-44.029	-110.155	-151.527	-58.6766	-45.8188	-136.499	-64.6269	-58.9488	-119.173	-70.0354	-82.322	-145.763	-70.5222	-13.2278	-126.747	-77.9896	-23.5012	-108.687	-89.0985	-35.6616	-188.192	-64.0005	-10.5508	-207.647	-64.5812	16.9384	-215.21	-39.3621	-12.3174	
178	1.48333	-226.712	-6.5848	-7.31812	-220.393	2.40283	-30.5945	-226.374	18.6062	-56.7549	-229.79	30.7818	-69.8493	-184.066	-24.293	-68.5225	-171.558	-22.7523	-92.0935	-162.321	-16.225	-118.357	-169.297	-46.4696	-69.0205	-155.222	-45.5563	-91.1775	-141.983	-46.4958	-116.312	-157.239	-60.1799	-47.0008	-139.277	-68.3596	-62.7816	-127.189	-71.296	-84.7399	-145.578	-71.493	-18.2273	-131.671	-74.1367	-27.2328	-115.197	-86.2187	-39.9659	-189.965	-65.7897	-9.03729	-210.013	-64.4068	11.8354	-220.503	-40.9816	-14.0042	
179	1.49167	-231.61	-8.48023	-6.0706	-229.552	2.18411	-28.113	-230.983	14.5102	-56.7133	-234.746	25.9327	-70.3927	-190.781	-29.4202	-75.5293	-185.717	-23.9211	-94.7495	-173.195	-25.2755	-117.12	-179.146	-49.9743	-69.0046	-167.352	-50.093	-91.141	-153.695	-52.9344	-118.597	-162.14	-65.9889	-47.0872	-150.86	-69.3966	-66.2019	-136.232	-77.346	-89.1134	-151.145	-74.1281	-22.1494	-136.815	-79.5729	-33.791	-122.791	-91.4168	-42.7463	-196.72	-66.9107	-8.60228	-214.101	-63.7141	14.6534	-225.034	-43.8445	-11.6479	
180	1.5	-235.079	-11.671	-8.58657	-235.969	0.355112	-29.8302	-241.617	13.3146	-61.0307	-244.895	24.0438	-77.0844	-200.001	-36.1863	-73.4186	-192.171	-31.7566	-100.706	-187.825	-28.0962	-124.124	-187.32	-54.4639	-75.419	-177.583	-56.1681	-99.198	-167.325	-59.3179	-125.624	-170.041	-71.5576	-55.0921	-163.196	-73.3065	-70.9262	-148.831	-83.9608	-93.6535	-160.597	-75.76	-29.2737	-146.948	-84.2775	-37.5222	-133.972	-97.7335	-47.1387	-204.534	-67.2198	-14.8286	-216.334	-69.9971	10.4273	-227.383	-46.5833	-11.6167	
181	1.50833	-237.865	-14.044	-10.2816	-243.287	-0.0206373	-35.8847	-249.368	11.6439	-58.2102	-254.421	22.4132	-76.023	-210.404	-37.9273	-81.0516	-204.181	-34.9923	-100.81	-199.965	-31.3025	-130.021	-195.88	-60.3087	-75.3244	-189.867	-59.563	-98.7993	-178.815	-67.4969	-129.908	-179.98	-73.8802	-53.6577	-170.949	-81.1553	-78.1927	-161.832	-88.8555	-96.4376	-167.276	-79.4777	-26.6516	-154.86	-88.8341	-44.1127	-142.868	-105.419	-51.6491	-209.893	-69.5424	-15.4255	-220.253	-68.9909	14.141	-231.553	-49.9291	-16.2523	
